<svg version="1.1" id="Layer_1" xmlns="http://www.w3.org/2000/svg" xmlns:xlink="http://www.w3.org/1999/xlink" x="0px" y="0px" width="100%" viewBox="0 0 611 619" enable-background="new 0 0 611 619" xml:space="preserve">
<path fill="#0B0C0D" opacity="1.000000" stroke="none" d="
M370.000000,620.000000 
	C246.666687,620.000000 123.833374,620.000000 1.000049,620.000000 
	C1.000033,413.666718 1.000033,207.333450 1.000016,1.000133 
	C204.666565,1.000088 408.333130,1.000088 611.999756,1.000044 
	C611.999878,207.333191 611.999878,413.666382 611.999939,619.999756 
	C531.500000,620.000000 451.000000,620.000000 370.000000,620.000000 
M227.520416,58.946045 
	C220.088745,63.039394 212.481522,66.846161 205.254272,71.273209 
	C162.544373,97.435089 129.237274,132.553345 105.306129,176.585693 
	C83.379623,216.929596 71.081917,259.724091 72.005867,305.929779 
	C72.073997,309.337158 72.440285,312.738556 72.723396,316.971649 
	C89.831696,314.716827 106.295082,313.410400 122.394341,310.249420 
	C158.389847,303.182007 188.849350,286.385742 211.872421,257.039764 
	C222.971466,242.892517 234.331497,228.808258 248.694199,217.732330 
	C286.243073,188.776199 328.933685,180.507034 375.091003,187.307816 
	C394.751373,190.204544 412.828064,197.782639 430.259613,207.129074 
	C432.995636,208.596085 436.825653,209.749512 439.655212,209.049240 
	C469.272217,201.719421 493.412964,186.497437 509.626740,159.859116 
	C521.570618,140.235886 527.907043,118.628586 532.931213,96.524002 
	C533.245911,95.139389 531.959961,92.724556 530.684570,91.741280 
	C484.684296,56.276821 433.601227,33.304050 374.872803,30.764887 
	C354.640198,29.890114 334.149445,30.248283 314.037231,32.437557 
	C283.961304,35.711418 255.418259,45.313034 227.520416,58.946045 
M257.187927,339.691833 
	C254.441315,343.463318 251.585373,347.160492 248.964783,351.017609 
	C218.551498,395.781250 175.949707,422.031219 123.663437,433.574585 
	C117.219109,434.997345 110.735214,436.240845 103.821808,437.659271 
	C111.706543,458.374573 125.445343,474.824249 138.484619,491.862488 
	C158.936081,481.933807 177.078690,469.878784 190.450897,451.617310 
	C197.044373,442.613129 203.322891,433.330597 210.501770,424.812714 
	C225.028198,407.576691 241.085602,392.296600 263.759888,385.976166 
	C289.549225,378.787384 314.479675,379.901062 338.390869,392.648712 
	C355.915924,401.991730 368.536743,416.550110 380.018005,432.278778 
	C391.115417,447.481659 403.614014,461.160065 420.506989,470.217773 
	C450.421356,486.257416 482.867706,490.532806 516.145508,491.009003 
	C517.366699,491.026489 518.595398,490.518951 520.402649,490.131226 
	C512.993591,465.361450 501.352142,443.905060 478.512085,431.160828 
	C468.202087,425.408112 456.466705,421.750610 444.968536,418.671600 
	C408.159454,408.814758 378.602783,389.307129 357.939056,356.799377 
	C353.049927,349.107910 347.088470,342.037811 341.143646,335.089691 
	C326.638672,318.136688 302.120300,312.247101 281.551483,320.211884 
	C271.360382,324.158203 264.157074,331.001862 257.187927,339.691833 
M446.391479,569.869202 
	C478.906860,562.014648 506.343048,544.722168 532.071106,524.007263 
	C526.954102,523.408813 522.026611,523.351074 517.100891,523.418640 
	C493.603180,523.741028 470.231537,523.659241 447.216766,517.337952 
	C410.951050,507.377106 379.888763,489.999664 357.493988,458.787018 
	C350.915924,449.618835 343.423523,441.000183 335.595337,432.855133 
	C310.251831,406.485657 272.271942,412.679321 254.109238,429.870544 
	C244.748474,438.730621 236.554626,449.051971 229.015228,459.560791 
	C212.825974,482.126373 193.302979,500.784454 169.117157,514.508728 
	C164.948456,516.874268 164.655075,519.162537 168.723068,521.932617 
	C181.782898,530.825684 195.059921,539.399170 208.171677,548.217102 
	C211.099304,550.185974 212.860489,549.481812 215.398575,547.232361 
	C227.453156,536.548828 235.298065,522.735840 244.171951,509.657196 
	C257.037384,490.695618 274.639374,480.150513 297.879211,478.778961 
	C323.274933,477.280121 343.978241,485.361481 359.070587,506.326263 
	C362.379852,510.923218 365.854065,515.415649 368.924072,520.168213 
	C387.041107,548.215210 412.411316,564.979004 446.391479,569.869202 
M234.577301,313.093292 
	C239.920685,308.094055 244.795700,302.444214 250.685593,298.204132 
	C282.329071,275.424194 326.557922,277.478119 356.374481,302.707153 
	C357.539185,303.692627 358.847290,304.508606 360.055634,305.379852 
	C362.097534,296.818329 363.601227,288.794678 365.946228,281.024994 
	C371.491028,262.653259 383.139832,248.133484 396.182037,234.567245 
	C397.839935,232.842728 399.264008,230.893433 401.036438,228.759247 
	C399.265930,228.064774 398.223145,227.580185 397.135193,227.240189 
	C375.415955,220.452362 353.126038,218.132248 330.583252,220.388458 
	C320.443542,221.403305 310.215485,223.752319 300.574280,227.080017 
	C279.131042,234.481216 263.251160,249.546524 248.659500,266.418854 
	C237.574265,279.236694 226.482468,292.356873 213.647232,303.292877 
	C181.008499,331.102051 142.178528,344.386261 99.773117,347.858551 
	C91.679192,348.521332 83.556374,348.831116 73.899811,349.393951 
	C78.274605,366.636597 82.634018,383.259979 86.627129,399.970856 
	C87.562004,403.883240 89.466644,404.781891 92.922974,404.095886 
	C105.961807,401.507904 119.264694,399.833527 131.986511,396.151184 
	C159.145706,388.289856 183.620468,375.348206 202.232590,353.363770 
	C213.200974,340.408051 223.506714,326.891327 234.577301,313.093292 
M379.047485,588.651672 
	C380.858917,588.417847 382.686737,588.269348 384.476898,587.924988 
	C386.091644,587.614258 387.665131,587.089050 390.048096,586.444397 
	C373.362366,579.297363 361.480347,567.831726 351.388000,554.342712 
	C345.705841,546.748291 340.754272,538.585693 334.802582,531.221375 
	C330.163086,525.480713 325.307678,519.156738 319.111755,515.581299 
	C303.712646,506.695038 283.976746,512.850952 273.711823,528.358826 
	C265.443176,540.850769 257.109406,553.299683 248.827087,565.782593 
	C248.297287,566.581055 247.961823,567.508545 247.387390,568.678589 
	C289.596130,585.649170 332.825012,594.056030 379.047485,588.651672 
z" data-index="0" style="opacity: 1; visibility: visible; fill: rgb(255, 255, 255);"></path>
<path fill="#FCDE07" opacity="1.000000" stroke="none" d="
M227.867096,58.802174 
	C255.418259,45.313034 283.961304,35.711418 314.037231,32.437557 
	C334.149445,30.248283 354.640198,29.890114 374.872803,30.764887 
	C433.601227,33.304050 484.684296,56.276821 530.684570,91.741280 
	C531.959961,92.724556 533.245911,95.139389 532.931213,96.524002 
	C527.907043,118.628586 521.570618,140.235886 509.626740,159.859116 
	C493.412964,186.497437 469.272217,201.719421 439.655212,209.049240 
	C436.825653,209.749512 432.995636,208.596085 430.259613,207.129074 
	C412.828064,197.782639 394.751373,190.204544 375.091003,187.307816 
	C328.933685,180.507034 286.243073,188.776199 248.694199,217.732330 
	C234.331497,228.808258 222.971466,242.892517 211.872421,257.039764 
	C188.849350,286.385742 158.389847,303.182007 122.394341,310.249420 
	C106.295082,313.410400 89.831696,314.716827 72.723396,316.971649 
	C72.440285,312.738556 72.073997,309.337158 72.005867,305.929779 
	C71.081917,259.724091 83.379623,216.929596 105.306129,176.585693 
	C129.237274,132.553345 162.544373,97.435089 205.254272,71.273209 
	C212.481522,66.846161 220.088745,63.039394 227.867096,58.802174 
z" data-index="1"></path>
<path fill="#FADD07" opacity="1.000000" stroke="none" d="
M257.414032,339.416138 
	C264.157074,331.001862 271.360382,324.158203 281.551483,320.211884 
	C302.120300,312.247101 326.638672,318.136688 341.143646,335.089691 
	C347.088470,342.037811 353.049927,349.107910 357.939056,356.799377 
	C378.602783,389.307129 408.159454,408.814758 444.968536,418.671600 
	C456.466705,421.750610 468.202087,425.408112 478.512085,431.160828 
	C501.352142,443.905060 512.993591,465.361450 520.402649,490.131226 
	C518.595398,490.518951 517.366699,491.026489 516.145508,491.009003 
	C482.867706,490.532806 450.421356,486.257416 420.506989,470.217773 
	C403.614014,461.160065 391.115417,447.481659 380.018005,432.278778 
	C368.536743,416.550110 355.915924,401.991730 338.390869,392.648712 
	C314.479675,379.901062 289.549225,378.787384 263.759888,385.976166 
	C241.085602,392.296600 225.028198,407.576691 210.501770,424.812714 
	C203.322891,433.330597 197.044373,442.613129 190.450897,451.617310 
	C177.078690,469.878784 158.936081,481.933807 138.484619,491.862488 
	C125.445343,474.824249 111.706543,458.374573 103.821808,437.659271 
	C110.735214,436.240845 117.219109,434.997345 123.663437,433.574585 
	C175.949707,422.031219 218.551498,395.781250 248.964783,351.017609 
	C251.585373,347.160492 254.441315,343.463318 257.414032,339.416138 
z" data-index="2" style="opacity: 1;"></path>
<path fill="#FADD07" opacity="1.000000" stroke="none" d="
M445.973694,569.820251 
	C412.411316,564.979004 387.041107,548.215210 368.924072,520.168213 
	C365.854065,515.415649 362.379852,510.923218 359.070587,506.326263 
	C343.978241,485.361481 323.274933,477.280121 297.879211,478.778961 
	C274.639374,480.150513 257.037384,490.695618 244.171951,509.657196 
	C235.298065,522.735840 227.453156,536.548828 215.398575,547.232361 
	C212.860489,549.481812 211.099304,550.185974 208.171677,548.217102 
	C195.059921,539.399170 181.782898,530.825684 168.723068,521.932617 
	C164.655075,519.162537 164.948456,516.874268 169.117157,514.508728 
	C193.302979,500.784454 212.825974,482.126373 229.015228,459.560791 
	C236.554626,449.051971 244.748474,438.730621 254.109238,429.870544 
	C272.271942,412.679321 310.251831,406.485657 335.595337,432.855133 
	C343.423523,441.000183 350.915924,449.618835 357.493988,458.787018 
	C379.888763,489.999664 410.951050,507.377106 447.216766,517.337952 
	C470.231537,523.659241 493.603180,523.741028 517.100891,523.418640 
	C522.026611,523.351074 526.954102,523.408813 532.071106,524.007263 
	C506.343048,544.722168 478.906860,562.014648 445.973694,569.820251 
z" data-index="3" style="opacity: 1;"></path>
<path fill="#FADD07" opacity="1.000000" stroke="none" d="
M234.343903,313.360107 
	C223.506714,326.891327 213.200974,340.408051 202.232590,353.363770 
	C183.620468,375.348206 159.145706,388.289856 131.986511,396.151184 
	C119.264694,399.833527 105.961807,401.507904 92.922974,404.095886 
	C89.466644,404.781891 87.562004,403.883240 86.627129,399.970856 
	C82.634018,383.259979 78.274605,366.636597 73.899811,349.393951 
	C83.556374,348.831116 91.679192,348.521332 99.773117,347.858551 
	C142.178528,344.386261 181.008499,331.102051 213.647232,303.292877 
	C226.482468,292.356873 237.574265,279.236694 248.659500,266.418854 
	C263.251160,249.546524 279.131042,234.481216 300.574280,227.080017 
	C310.215485,223.752319 320.443542,221.403305 330.583252,220.388458 
	C353.126038,218.132248 375.415955,220.452362 397.135193,227.240189 
	C398.223145,227.580185 399.265930,228.064774 401.036438,228.759247 
	C399.264008,230.893433 397.839935,232.842728 396.182037,234.567245 
	C383.139832,248.133484 371.491028,262.653259 365.946228,281.024994 
	C363.601227,288.794678 362.097534,296.818329 360.055634,305.379852 
	C358.847290,304.508606 357.539185,303.692627 356.374481,302.707153 
	C326.557922,277.478119 282.329071,275.424194 250.685593,298.204132 
	C244.795700,302.444214 239.920685,308.094055 234.343903,313.360107 
z" data-index="4"></path>
<path fill="#FBDD07" opacity="1.000000" stroke="none" d="
M378.614136,588.745300 
	C332.825012,594.056030 289.596130,585.649170 247.387390,568.678589 
	C247.961823,567.508545 248.297287,566.581055 248.827087,565.782593 
	C257.109406,553.299683 265.443176,540.850769 273.711823,528.358826 
	C283.976746,512.850952 303.712646,506.695038 319.111755,515.581299 
	C325.307678,519.156738 330.163086,525.480713 334.802582,531.221375 
	C340.754272,538.585693 345.705841,546.748291 351.388000,554.342712 
	C361.480347,567.831726 373.362366,579.297363 390.048096,586.444397 
	C387.665131,587.089050 386.091644,587.614258 384.476898,587.924988 
	C382.686737,588.269348 380.858917,588.417847 378.614136,588.745300 
z" data-index="5" style="opacity: 1;"></path>
</svg>